<?xml version="1.0" encoding="UTF-8"?>
<svg width="640px" height="511px" viewBox="0 0 640 511" version="1.1" xmlns="http://www.w3.org/2000/svg" xmlns:xlink="http://www.w3.org/1999/xlink">
    <!-- Generator: Sketch 47.1 (45422) - http://www.bohemiancoding.com/sketch -->
    <title>cogs</title>
    <desc>Created with Sketch.</desc>
    <defs></defs>
    <g id="icons" stroke="none" stroke-width="1" fill="none" fill-rule="evenodd">
        <g id="cogs" transform="translate(-1.000000, 0.000000)" fill-rule="nonzero" fill="#FFFFFF">
            <path d="M513.1,191 L504.9,205.3 C501.9,210.6 495.5,212.8 489.8,210.7 C478,206.3 467.2,200 457.7,192.1 C453.1,188.3 451.9,181.6 454.9,176.4 L463.1,162.1 C456.2,154.1 450.8,144.8 447.2,134.7 L430.7,134.7 C424.7,134.7 419.5,130.4 418.5,124.4 C416.5,112.4 416.4,99.8 418.5,87.3 C419.5,81.3 424.7,76.9 430.7,76.9 L447.2,76.9 C450.8,66.8 456.2,57.5 463.1,49.5 L454.9,35.2 C451.9,30 453,23.3 457.7,19.5 C467.2,11.6 478.1,5.3 489.8,0.9 C495.5,-1.2 501.9,1 504.9,6.3 L513.1,20.6 C523.6,18.7 534.3,18.7 544.8,20.6 L553,6.3 C556,1 562.4,-1.2 568.1,0.9 C579.9,5.3 590.7,11.6 600.2,19.5 C604.8,23.3 606,30 603,35.2 L594.8,49.5 C601.7,57.5 607.1,66.8 610.7,76.9 L627.2,76.9 C633.2,76.9 638.4,81.2 639.4,87.2 C641.4,99.2 641.5,111.8 639.4,124.3 C638.4,130.3 633.2,134.7 627.2,134.7 L610.7,134.7 C607.1,144.8 601.7,154.1 594.8,162.1 L603,176.4 C606,181.6 604.9,188.3 600.2,192.1 C590.7,200 579.8,206.3 568.1,210.7 C562.4,212.8 556,210.6 553,205.3 L544.8,191 C534.4,192.9 523.6,192.9 513.1,191 L513.1,191 Z M502.6,132.2 C541.1,161.8 585,117.9 555.4,79.4 C516.9,49.7 473,93.7 502.6,132.2 L502.6,132.2 Z M387.3,286.1 L421,302.9 C431.1,308.7 435.5,321 431.5,332 C422.6,356.2 405.1,378.4 388.9,397.8 C381.5,406.7 368.7,408.9 358.6,403.1 L329.5,386.3 C313.5,400 294.9,410.9 274.6,418 L274.6,451.6 C274.6,463.2 266.3,473.2 254.9,475.2 C230.3,479.4 204.5,479.6 179,475.2 C167.5,473.2 159,463.3 159,451.6 L159,418 C138.7,410.8 120.1,400 104.1,386.3 L75,403 C65,408.8 52.1,406.6 44.7,397.7 C28.5,378.3 11.4,356.1 2.5,332 C-1.5,321.1 2.9,308.8 13,302.9 L46.3,286.1 C42.4,265.2 42.4,243.7 46.3,222.7 L13,205.8 C2.9,200 -1.6,187.7 2.5,176.8 C11.4,152.6 28.5,130.4 44.7,111 C52.1,102.1 64.9,99.9 75,105.7 L104.1,122.5 C120.1,108.8 138.7,97.9 159,90.8 L159,57.1 C159,45.6 167.2,35.6 178.6,33.6 C203.2,29.4 229.1,29.2 254.6,33.5 C266.1,35.5 274.6,45.4 274.6,57.1 L274.6,90.7 C294.9,97.9 313.5,108.7 329.5,122.4 L358.6,105.6 C368.6,99.8 381.5,102 388.9,110.9 C405.1,130.3 422.1,152.5 431,176.7 C435,187.6 431.1,199.9 421,205.8 L387.3,222.6 C391.2,243.6 391.2,265.1 387.3,286.1 Z M269.7,307.2 C328.9,230.2 241,142.3 164,201.5 C104.8,278.5 192.7,366.4 269.7,307.2 Z M513.1,489.9 L504.9,504.2 C501.9,509.5 495.5,511.7 489.8,509.6 C478,505.2 467.2,498.9 457.7,491 C453.1,487.2 451.9,480.5 454.9,475.3 L463.1,461 C456.2,453 450.8,443.7 447.2,433.6 L430.7,433.6 C424.7,433.6 419.5,429.3 418.5,423.3 C416.5,411.3 416.4,398.7 418.5,386.2 C419.5,380.2 424.7,375.8 430.7,375.8 L447.2,375.8 C450.8,365.7 456.2,356.4 463.1,348.4 L454.9,334.1 C451.9,328.9 453,322.2 457.7,318.4 C467.2,310.5 478.1,304.2 489.8,299.8 C495.5,297.7 501.9,299.9 504.9,305.2 L513.1,319.5 C523.6,317.6 534.3,317.6 544.8,319.5 L553,305.2 C556,299.9 562.4,297.7 568.1,299.8 C579.9,304.2 590.7,310.5 600.2,318.4 C604.8,322.2 606,328.9 603,334.1 L594.8,348.4 C601.7,356.4 607.1,365.7 610.7,375.8 L627.2,375.8 C633.2,375.8 638.4,380.1 639.4,386.1 C641.4,398.1 641.5,410.7 639.4,423.2 C638.4,429.2 633.2,433.6 627.2,433.6 L610.7,433.6 C607.1,443.7 601.7,453 594.8,461 L603,475.3 C606,480.5 604.9,487.2 600.2,491 C590.7,498.9 579.8,505.2 568.1,509.6 C562.4,511.7 556,509.5 553,504.2 L544.8,489.9 C534.4,491.8 523.6,491.8 513.1,489.9 Z M502.6,431 C541.1,460.6 585,416.7 555.4,378.2 C516.9,348.6 473,392.5 502.6,431 L502.6,431 Z" id="Shape"></path>
        </g>
    </g>
</svg>