<?xml version="1.0" encoding="UTF-8"?>
<svg width="576px" height="512px" viewBox="0 0 576 512" version="1.1" xmlns="http://www.w3.org/2000/svg" xmlns:xlink="http://www.w3.org/1999/xlink">
    <!-- Generator: Sketch 47.1 (45422) - http://www.bohemiancoding.com/sketch -->
    <title>edit</title>
    <desc>Created with Sketch.</desc>
    <defs></defs>
    <g id="icons" stroke="none" stroke-width="1" fill="none" fill-rule="evenodd">
        <g id="edit" fill-rule="nonzero" fill="#000000">
            <path d="M402.6,83.2 L492.8,173.4 C496.6,177.2 496.6,183.4 492.8,187.2 L274.4,405.6 L181.6,415.9 C169.2,417.3 158.7,406.8 160.1,394.4 L170.4,301.6 L388.8,83.2 C392.6,79.4 398.8,79.4 402.6,83.2 Z M564.6,60.3 L515.8,11.5 C500.6,-3.7 475.9,-3.7 460.6,11.5 L425.2,46.9 C421.4,50.7 421.4,56.9 425.2,60.7 L515.4,150.9 C519.2,154.7 525.4,154.7 529.2,150.9 L564.6,115.5 C579.8,100.2 579.8,75.5 564.6,60.3 Z M384,346.2 L384,448 L64,448 L64,128 L293.8,128 C297,128 300,126.7 302.3,124.5 L342.3,84.5 C349.9,76.9 344.5,64 333.8,64 L48,64 C21.5,64 0,85.5 0,112 L0,464 C0,490.5 21.5,512 48,512 L400,512 C426.5,512 448,490.5 448,464 L448,306.2 C448,295.5 435.1,290.2 427.5,297.7 L387.5,337.7 C385.3,340 384,343 384,346.2 Z" id="Shape"></path>
        </g>
    </g>
</svg>