<?xml version="1.0" encoding="UTF-8"?>
<svg width="512px" height="384px" viewBox="0 0 512 384" version="1.1" xmlns="http://www.w3.org/2000/svg" xmlns:xlink="http://www.w3.org/1999/xlink">
    <!-- Generator: Sketch 47.1 (45422) - http://www.bohemiancoding.com/sketch -->
    <title>id</title>
    <desc>Created with Sketch.</desc>
    <defs></defs>
    <g id="icons" stroke="none" stroke-width="1" fill="none" fill-rule="evenodd">
        <g id="id" fill-rule="nonzero" fill="#FFFFFF">
            <path d="M464,384 L48,384 C21.49,384 0,362.51 0,336 L0,48 C0,21.49 21.49,0 48,0 L464,0 C490.51,0 512,21.49 512,48 L512,336 C512,362.51 490.51,384 464,384 Z M160,96 C124.654,96 96,124.654 96,160 C96,195.346 124.654,224 160,224 C195.346,224 224,195.346 224,160 C224,124.654 195.346,96 160,96 L160,96 Z M239.589,250.53 L211.308,241.103 C196.458,250.532 178.856,256 160,256 C141.144,256 123.542,250.532 108.691,241.103 L80.41,250.53 C70.6101389,253.796876 64.0000952,262.967959 64,273.298 L64,296 C64,309.255 74.745,320 88,320 L232,320 C245.255,320 256,309.255 256,296 L256,273.298 C255.999761,262.967693 249.389256,253.796529 239.589,250.53 Z M448,276 L448,268 C448,261.373 442.627,256 436,256 L300,256 C293.373,256 288,261.373 288,268 L288,276 C288,282.627 293.373,288 300,288 L436,288 C442.627,288 448,282.627 448,276 Z M448,212 L448,204 C448,197.373 442.627,192 436,192 L300,192 C293.373,192 288,197.373 288,204 L288,212 C288,218.627 293.373,224 300,224 L436,224 C442.627,224 448,218.627 448,212 Z M448,148 L448,140 C448,133.373 442.627,128 436,128 L300,128 C293.373,128 288,133.373 288,140 L288,148 C288,154.627 293.373,160 300,160 L436,160 C442.627,160 448,154.627 448,148 Z M480,52 L480,44 C480,37.373 474.627,32 468,32 L44,32 C37.373,32 32,37.373 32,44 L32,52 C32,58.627 37.373,64 44,64 L468,64 C474.627,64 480,58.627 480,52 Z" id="Shape"></path>
        </g>
    </g>
</svg>