<?xml version="1.0" encoding="UTF-8"?>
<svg width="577px" height="448px" viewBox="0 0 577 448" version="1.1" xmlns="http://www.w3.org/2000/svg" xmlns:xlink="http://www.w3.org/1999/xlink">
    <!-- Generator: Sketch 47.1 (45422) - http://www.bohemiancoding.com/sketch -->
    <title>social</title>
    <desc>Created with Sketch.</desc>
    <defs></defs>
    <g id="icons" stroke="none" stroke-width="1" fill="none" fill-rule="evenodd">
        <g id="social" fill-rule="nonzero" fill="#FFFFFF">
            <path d="M577,208 C577,323 448,416 289,416 C240.7,416 195.1,407.4 155.1,392.2 C114.8,423.4 65.3,442.5 12.7,447.9 C7.5,448.5 2.5,445.1 1.2,440.2 C-0.1,435.2 3.9,432.1 7.8,428.4 C27.1,410 50.5,395.6 59.7,333.8 C22.9,298.9 1,255.3 1,208 C1,93.1 130,0 289,0 C448,0 577,93.1 577,208 Z M161,160 C134.5,160 113,181.5 113,208 C113,234.5 134.5,256 161,256 C187.5,256 209,234.5 209,208 C209,181.5 187.5,160 161,160 Z M289,160 C262.5,160 241,181.5 241,208 C241,234.5 262.5,256 289,256 C315.5,256 337,234.5 337,208 C337,181.5 315.5,160 289,160 Z M417,160 C390.5,160 369,181.5 369,208 C369,234.5 390.5,256 417,256 C443.5,256 465,234.5 465,208 C465,181.5 443.5,160 417,160 Z" id="Shape"></path>
        </g>
    </g>
</svg>