<svg xmlns="http://www.w3.org/2000/svg" viewBox="7561 -1925.199 800 800.271"><defs><style>.a,.d{fill:none;}.a{stroke:#fff;stroke-width:20px;}.b{fill:#fff;}.c{stroke:none;}</style></defs><g class="a" transform="translate(7561 -1925)"><rect class="c" width="800" height="800" rx="41"/><rect class="d" x="10" y="10" width="780" height="780" rx="31"/></g><rect class="b" width="200" height="700" rx="20" transform="translate(8161 -1925)"/><path class="b" d="M204.5,0c110.457,0,200,91.558,200,204.5S314.957,409,204.5,409Z" transform="translate(8365.5 -1516) rotate(180)"/><rect class="b" width="200" height="700" transform="translate(7706 -1925)"/><rect class="b" width="200" height="200" transform="translate(7871 -1425)"/><path class="a" d="M7561-1125l240.073-165.395" transform="translate(17 -19)"/><path class="a" d="M8041.654-1392.056l202.072-202.072" transform="translate(-7)"/><path class="a" d="M8041.653-1494.128l100-100" transform="translate(-77.654 362.128)"/><path class="a" d="M8041.654-1449.4l144.726-144.726" transform="translate(-471.654 -324)"/><path class="a" d="M8041.654-1392.056l202.072-202.072" transform="translate(-171 -320)"/><path class="a" d="M8041.653-1494.128l100-100" transform="translate(30.346 360.128)"/><path class="a" d="M8041.654-1495.53l98.6-98.6" transform="translate(208.346 359.128)"/></svg>